<?xml version="1.0" encoding="UTF-8"?>
<svg xmlns="http://www.w3.org/2000/svg" xmlns:xlink="http://www.w3.org/1999/xlink" version="1.1" preserveAspectRatio="none" x="0px" y="0px" width="99px" height="28px" viewBox="0 0 99 28">
  <defs>
    <g id="Layer1_0_FILL">
      <path fill="#10B3C9" stroke="none" d=" M 309.15 137.6 Q 309.15 137 310 137 310.8 137 310.8 138.05 L 310.8 138.55 Q 307.65 139.3 307.65 140.8 307.65 141.5 308.15 141.95 308.6 142.35 309.35 142.35 310.5 142.35 311.05 141.7 311.1 141.95 311.35 142.15 311.65 142.4 311.95 142.45 L 313.45 141.45 313.3 141.45 Q 312.35 141.45 312.35 140.25 L 312.35 137.95 Q 312.35 136 310.15 136 309.2 136 308.5 136.55 307.75 137.1 307.75 137.95 307.75 138.35 307.9 138.65 L 309.4 138.05 Q 309.15 137.9 309.15 137.6 M 310.8 139.45 L 310.8 140.35 Q 310.8 140.8 310.5 141.1 310.2 141.35 309.85 141.35 309.05 141.35 309.05 140.65 309.05 139.8 310.8 139.45 Z"></path>
    </g>
    <g id="Layer1_1_FILL">
      <path fill="#10B3C9" stroke="none" d=" M 313.5 136.9 L 313.65 136.9 Q 314.3 136.9 314.3 138.15 L 314.3 143.1 Q 314.3 144.439453125 313.8 144.45 L 316.45 144.45 Q 315.85 144.439453125 315.85 143.1 L 315.85 141.95 Q 316.15 142.3 316.85 142.3 318.1 142.3 318.85 141.4 319.65 140.45 319.65 138.95 319.65 137.5 318.95 136.7 318.3 136 317.4 136 316.4 136 315.75 136.9 L 315.75 135.95 313.5 136.9 M 315.8 138.65 Q 315.8 138.05 316.1 137.65 316.4 137.25 316.85 137.25 318 137.25 318 139.3 318 140.1 317.7 140.65 317.35 141.2 316.75 141.2 315.8 141.2 315.8 140.3 L 315.8 138.65 Z"></path>
    </g>
    <g id="Layer1_2_FILL">
      <path fill="#10B3C9" stroke="none" d=" M 324.8 138.25 L 324.8 136.2 Q 324.55 136 324.2 136 323.2 136 322.6 137.3 L 322.6 135.95 320.35 136.85 320.5 136.85 Q 321.15 136.85 321.15 138 L 321.15 140.8 Q 321.15 142.139453125 320.55 142.15 L 323.3 142.15 Q 322.7 142.139453125 322.7 140.8 L 322.7 139.55 Q 322.7 137.55 323.8 137.55 324.55 137.55 324.8 138.25 Z"></path>
    </g>
    <g id="Layer1_3_FILL">
      <path fill="#10B3C9" stroke="none" d=" M 325.6 139.3 Q 325.6 140.6 326.3 141.45 327.05 142.35 328.25 142.35 330.35 142.35 330.7 140.25 330.05 141.15 328.9 141.15 327.35 141.15 327.05 139.4 L 330.6 139.4 Q 330.6 136 328.25 136 327.05 136 326.3 137 325.6 137.95 325.6 139.3 M 327.05 138.5 Q 327.25 137.05 328.25 137.05 329.15 137.05 329.15 138.5 L 327.05 138.5 Z"></path>
    </g>
    <g id="Layer1_4_FILL">
      <path fill="#10B3C9" stroke="none" d=" M 331.35 136.9 L 331.55 136.9 Q 332.2 136.9 332.2 138.1 L 332.2 140.85 Q 332.2 142.134765625 331.6 142.15 L 334.25 142.15 Q 333.7 142.134765625 333.7 140.85 L 333.7 138.55 Q 333.7 138 334.05 137.6 334.4 137.25 334.85 137.25 335.65 137.25 335.65 138.5 L 335.65 140.85 Q 335.65 142.13984375 335.1 142.15 L 337.8 142.15 Q 337.2 142.139453125 337.2 140.8 L 337.2 138.1 Q 337.2 136 335.45 136 334.4 136 333.7 136.9 L 333.65 135.95 331.35 136.9 Z"></path>
    </g>
    <g id="Layer1_5_FILL">
      <path fill="#10B3C9" stroke="none" d=" M 344.1 133.3 L 341.7 134.2 341.8 134.2 Q 342.55 134.2 342.55 135.5 L 342.55 136.4 Q 342.2 136.05 341.45 136.05 340.4 136.05 339.6 136.9 338.75 137.85 338.75 139.45 338.75 140.85 339.45 141.65 340.05 142.35 341 142.35 342.15 142.35 342.65 141.65 L 342.65 142.45 344.9 141.6 344.75 141.6 Q 344.1 141.6 344.1 140.35 L 344.1 133.3 M 342.55 138.3 L 342.55 139.95 Q 342.55 140.5 342.25 140.85 341.95 141.15 341.5 141.15 341 141.15 340.65 140.55 340.35 139.95 340.35 139.05 340.35 138.25 340.7 137.75 341.05 137.15 341.6 137.15 342.55 137.15 342.55 138.3 Z"></path>
    </g>
    <g id="Layer1_6_FILL">
      <path fill="#10B3C9" stroke="none" d=" M 350.65 139.4 Q 350.65 137.8 350 136.9 349.4 136 348.3 136 347.1 136 346.35 137 345.6 137.95 345.6 139.3 345.6 140.6 346.3 141.45 347.05 142.35 348.25 142.35 350.3 142.35 350.75 140.25 350.1 141.15 348.9 141.15 348.25 141.15 347.75 140.7 347.2 140.25 347.1 139.4 L 350.65 139.4 M 348.25 137.05 Q 349.2 137.05 349.2 138.5 L 347.1 138.5 Q 347.15 137.9 347.45 137.5 347.8 137.05 348.25 137.05 Z"></path>
    </g>
  </defs>
  <g transform="matrix( 2.2008514404296875, 0, 0, 2.2008514404296875, -675.1,-291.35) ">
    <use xlink:href="#Layer1_0_FILL"></use>
  </g>
  <g transform="matrix( 2.2008514404296875, 0, 0, 2.2008514404296875, -675.1,-291.35) ">
    <use xlink:href="#Layer1_1_FILL"></use>
  </g>
  <g transform="matrix( 2.2008514404296875, 0, 0, 2.2008514404296875, -675.1,-291.35) ">
    <use xlink:href="#Layer1_2_FILL"></use>
  </g>
  <g transform="matrix( 2.2008514404296875, 0, 0, 2.2008514404296875, -675.1,-291.35) ">
    <use xlink:href="#Layer1_3_FILL"></use>
  </g>
  <g transform="matrix( 2.2008514404296875, 0, 0, 2.2008514404296875, -675.1,-291.35) ">
    <use xlink:href="#Layer1_4_FILL"></use>
  </g>
  <g transform="matrix( 2.2008514404296875, 0, 0, 2.2008514404296875, -675.1,-291.35) ">
    <use xlink:href="#Layer1_5_FILL"></use>
  </g>
  <g transform="matrix( 2.2008514404296875, 0, 0, 2.2008514404296875, -675.1,-291.35) ">
    <use xlink:href="#Layer1_6_FILL"></use>
  </g>
</svg>
