<?xml version="1.0" encoding="UTF-8"?>
<svg xmlns="http://www.w3.org/2000/svg" xmlns:xlink="http://www.w3.org/1999/xlink" version="1.1" preserveAspectRatio="none" x="0px" y="0px" width="110px" height="28px" viewBox="0 0 110 28">
  <defs>
    <g id="Layer1_0_FILL">
      <path fill="#1B5CFF" stroke="none" d=" M 261.25 133.3 L 258.85 134.2 258.95 134.2 Q 259.7 134.2 259.7 135.5 L 259.7 136.4 Q 259.35 136.05 258.6 136.05 257.5 136.05 256.7 136.9 255.85 137.85 255.85 139.45 255.85 140.85 256.55 141.65 257.2 142.35 258.15 142.35 259.2 142.35 259.8 141.65 L 259.8 142.45 262.05 141.6 261.9 141.6 Q 261.25 141.6 261.25 140.35 L 261.25 133.3 M 259.7 138.3 L 259.7 139.95 Q 259.7 140.5 259.4 140.85 259.1 141.15 258.65 141.15 257.5 141.15 257.5 139.05 257.5 138.25 257.85 137.75 258.2 137.15 258.75 137.15 259.7 137.15 259.7 138.3 Z"></path>
    </g>
    <g id="Layer1_1_FILL">
      <path fill="#1B5CFF" stroke="none" d=" M 264.25 139.4 L 267.8 139.4 Q 267.7 136 265.45 136 264.2 136 263.45 137 262.75 137.95 262.75 139.3 262.75 140.6 263.45 141.45 264.2 142.35 265.4 142.35 267.5 142.35 267.85 140.25 267.2 141.15 266.05 141.15 264.5 141.15 264.25 139.4 M 264.25 138.5 Q 264.3 137.9 264.6 137.5 264.95 137.05 265.4 137.05 266.3 137.05 266.3 138.5 L 264.25 138.5 Z"></path>
    </g>
    <g id="Layer1_2_FILL">
      <path fill="#1B5CFF" stroke="none" d=" M 271.15 137.1 Q 272.15 137.1 272.7 138.05 L 272.7 136.35 Q 272.1 136 271.2 136 269.05 136 269.05 137.9 269.05 138.9 270.2 139.6 270.7 139.85 271.3 140.15 271.65 140.4 271.65 140.7 271.65 141.25 270.8 141.25 269.6 141.25 268.95 140 L 268.95 141.85 Q 269.6 142.35 270.8 142.35 271.85 142.35 272.45 141.85 273.05 141.35 273.05 140.5 273.05 139.35 271.65 138.65 270.9 138.3 270.75 138.15 270.45 137.95 270.45 137.65 270.45 137.1 271.15 137.1 Z"></path>
    </g>
    <g id="Layer1_3_FILL">
      <path fill="#1B5CFF" stroke="none" d=" M 282.05 139.15 Q 280.9 139.15 280.1 140.1 279.25 141.05 279.25 142.6 279.25 143.9 279.9 144.65 280.6 145.5 281.8 145.5 282.65 145.5 283.25 144.95 283.95 144.35 284.1 143.35 283.35 144.3 282.4 144.3 281.6 144.3 281.15 143.6 280.7 142.95 280.7 142.05 280.7 141.3 281 140.8 281.35 140.3 281.85 140.3 282.6 140.3 282.6 141.3 L 282.55 141.75 284 141.15 Q 283.95 140.3 283.4 139.7 282.85 139.15 282.05 139.15 Z"></path>
    </g>
    <g id="Layer1_4_FILL">
      <path fill="#1B5CFF" stroke="none" d=" M 283.85 142.4 L 286.15 141.45 285.95 141.45 Q 285.3 141.45 285.3 140.3 L 285.3 136.2 283.2 136.2 Q 283.8 136.5 283.8 137.5 L 283.8 139.8 Q 283.8 140.35 283.45 140.75 283.15 141.1 282.65 141.1 281.85 141.1 281.85 139.9 L 281.85 136.2 279.55 136.2 Q 279.9 136.35 279.95 136.45 280.3 136.8 280.3 137.55 L 280.3 140.25 Q 280.3 142.35 282.05 142.35 283.1 142.35 283.8 141.5 L 283.85 142.4 Z"></path>
    </g>
    <g id="Layer1_5_FILL">
      <path fill="#1B5CFF" stroke="none" d=" M 288.75 133.3 L 286.4 134.15 286.5 134.15 Q 287.25 134.15 287.25 135.55 L 287.25 142.35 Q 287.5 142 287.95 142 288.05 142 288.55 142.2 289.05 142.35 289.7 142.35 290.95 142.35 291.75 141.3 292.55 140.3 292.55 138.9 292.55 137.5 291.85 136.7 291.25 136 290.35 136 289.35 136 288.75 136.8 L 288.75 133.3 M 288.75 138.6 Q 288.75 138 289.05 137.65 289.35 137.25 289.8 137.25 290.35 137.25 290.65 137.9 290.9 138.45 290.9 139.25 290.9 141.2 289.65 141.2 288.75 141.2 288.75 140.3 L 288.75 138.6 Z"></path>
    </g>
    <g id="Layer1_6_FILL">
      <path fill="#1B5CFF" stroke="none" d=" M 293.25 136.85 L 293.4 136.85 Q 294.05 136.85 294.05 138 L 294.05 140.8 Q 294.05 142.139453125 293.45 142.15 L 296.2 142.15 Q 295.6 142.139453125 295.6 140.8 L 295.6 139.55 Q 295.6 137.55 296.7 137.55 297.45 137.55 297.7 138.25 L 297.7 136.2 Q 297.45 136 297.05 136 296.6 136 296.15 136.4 295.7 136.8 295.5 137.3 L 295.5 135.95 293.25 136.85 Z"></path>
    </g>
    <g id="Layer1_7_FILL">
      <path fill="#1B5CFF" stroke="none" d=" M 299.95 139.4 L 303.5 139.4 Q 303.5 136 301.15 136 299.95 136 299.2 137 298.5 137.95 298.5 139.3 298.5 140.6 299.2 141.45 299.95 142.35 301.15 142.35 303.25 142.35 303.6 140.25 302.95 141.15 301.8 141.15 300.25 141.15 299.95 139.4 M 299.95 138.5 Q 300.15 137.05 301.1 137.05 302.05 137.05 302.05 138.5 L 299.95 138.5 Z"></path>
    </g>
  </defs>
  <g transform="matrix( 2.2008514404296875, 0, 0, 2.2008514404296875, -561.1,-291.35) ">
    <use xlink:href="#Layer1_0_FILL"></use>
  </g>
  <g transform="matrix( 2.2008514404296875, 0, 0, 2.2008514404296875, -561.1,-291.35) ">
    <use xlink:href="#Layer1_1_FILL"></use>
  </g>
  <g transform="matrix( 2.2008514404296875, 0, 0, 2.2008514404296875, -561.1,-291.35) ">
    <use xlink:href="#Layer1_2_FILL"></use>
  </g>
  <g transform="matrix( 2.2008514404296875, 0, 0, 2.2008514404296875, -572.45,-298.3) ">
    <use xlink:href="#Layer1_3_FILL"></use>
  </g>
  <g transform="matrix( 2.2008514404296875, 0, 0, 2.2008514404296875, -561.1,-291.35) ">
    <use xlink:href="#Layer1_4_FILL"></use>
  </g>
  <g transform="matrix( 2.2008514404296875, 0, 0, 2.2008514404296875, -561.1,-291.35) ">
    <use xlink:href="#Layer1_5_FILL"></use>
  </g>
  <g transform="matrix( 2.2008514404296875, 0, 0, 2.2008514404296875, -561.1,-291.35) ">
    <use xlink:href="#Layer1_6_FILL"></use>
  </g>
  <g transform="matrix( 2.2008514404296875, 0, 0, 2.2008514404296875, -561.1,-291.35) ">
    <use xlink:href="#Layer1_7_FILL"></use>
  </g>
</svg>
