<?xml version="1.0" encoding="UTF-8"?>
<svg xmlns="http://www.w3.org/2000/svg" xmlns:xlink="http://www.w3.org/1999/xlink" version="1.1" preserveAspectRatio="none" x="0px" y="0px" width="94px" height="28px" viewBox="0 0 94 28">
  <defs>
    <g id="Layer1_0_FILL">
      <path fill="#FFBF1F" stroke="none" d=" M 213.25 134.9 L 214.75 134.9 Q 215.95 134.9 216.2 136 L 216.2 133.75 210.75 133.75 Q 211.5 133.771875 211.5 135.15 L 211.5 140.65 Q 211.5 142.13828125 210.85 142.15 L 216.35 142.15 216.75 139.8 Q 216.4 140.45 216.05 140.7 215.6 141 214.85 141 L 213.25 141 213.25 138.5 214.6 138.5 Q 215.49296875 138.5 215.5 138.9 L 215.5 136.9 Q 215.492578125 137.3 214.55 137.3 L 213.25 137.3 213.25 134.9 Z"></path>
    </g>
    <g id="Layer1_1_FILL">
      <path fill="#FFBF1F" stroke="none" d=" M 221.3 139.05 L 222.4 137.3 Q 223 136.3 223.6 136.2 L 221.2 136.2 Q 221.4 136.20546875 221.4 136.55 221.4 136.85 221.1 137.25 L 220.65 138 220.15 137.2 Q 219.9 136.85 219.9 136.6 219.9 136.20625 220.15 136.2 L 217.35 136.2 Q 217.4 136.25 217.65 136.45 218 136.75 218.35 137.25 L 219.65 139.35 218.6 141 Q 217.855859375 142.141015625 217.35 142.15 L 219.8 142.15 Q 219.55 142.1453125 219.55 141.85 219.55 141.6 219.9 141.05 L 220.35 140.35 220.75 141.1 Q 221.05 141.5 221.05 141.85 221.05 142.1453125 220.85 142.15 L 223.65 142.15 Q 223.3453125 142.14296875 222.75 141.25 L 221.3 139.05 Z"></path>
    </g>
    <g id="Layer1_2_FILL">
      <path fill="#FFBF1F" stroke="none" d=" M 229.3 141.4 Q 230.1 140.45 230.1 138.95 230.1 137.5 229.4 136.7 228.75 136 227.85 136 226.85 136 226.2 136.9 L 226.2 135.95 223.95 136.9 224.1 136.9 Q 224.75 136.9 224.75 138.15 L 224.75 143.1 Q 224.75 144.439453125 224.25 144.45 L 226.9 144.45 Q 226.3 144.439453125 226.3 143.1 L 226.3 141.95 Q 226.6 142.3 227.3 142.3 228.55 142.3 229.3 141.4 M 228.45 139.3 Q 228.45 140.1 228.15 140.65 227.8 141.2 227.2 141.2 226.25 141.2 226.25 140.3 L 226.25 138.65 Q 226.25 138.05 226.55 137.65 226.85 137.25 227.3 137.25 228.45 137.25 228.45 139.3 Z"></path>
    </g>
    <g id="Layer1_3_FILL">
      <path fill="#FFBF1F" stroke="none" d=" M 231.05 142.15 L 233.75 142.15 Q 233.15 142.139453125 233.15 140.8 L 233.15 133.35 230.8 134.25 230.9 134.25 Q 231.65 134.25 231.65 135.6 L 231.65 140.8 Q 231.65 142.05 231.05 142.15 Z"></path>
    </g>
    <g id="Layer1_4_FILL">
      <path fill="#FFBF1F" stroke="none" d=" M 239.8 141.4 Q 240.65 140.45 240.65 139.05 240.65 137.7 239.85 136.85 239.05 136 237.7 136 236.4 136 235.55 136.95 234.75 137.9 234.75 139.3 234.75 140.65 235.5 141.5 236.3 142.35 237.6 142.35 238.95 142.35 239.8 141.4 M 239.05 139.3 Q 239.05 140.1 238.7 140.65 238.35 141.2 237.8 141.2 237.1 141.2 236.7 140.55 236.3 139.9 236.3 139 236.3 138.2 236.65 137.7 236.95 137.15 237.55 137.15 238.2 137.15 238.65 137.8 239.05 138.45 239.05 139.3 Z"></path>
    </g>
    <g id="Layer1_5_FILL">
      <path fill="#FFBF1F" stroke="none" d=" M 241.4 136.85 L 241.55 136.85 Q 242.2 136.85 242.2 138 L 242.2 140.8 Q 242.2 142.05 241.6 142.15 L 244.3 142.15 Q 243.7 142.139453125 243.7 140.8 L 243.7 139.55 Q 243.7 137.55 244.8 137.55 245.55 137.55 245.8 138.25 L 245.8 136.2 Q 245.55 136 245.2 136 244.15 136 243.65 137.3 L 243.6 135.95 241.4 136.85 Z"></path>
    </g>
    <g id="Layer1_6_FILL">
      <path fill="#FFBF1F" stroke="none" d=" M 248.5 138.05 Q 248.25 137.9 248.25 137.6 248.25 137 249.1 137 249.9 137 249.9 138.05 L 249.9 138.55 Q 246.7 139.3 246.7 140.8 246.7 141.5 247.2 141.95 247.7 142.35 248.45 142.35 249.6 142.35 250.1 141.7 250.3 142.35 251.05 142.45 L 252.5 141.45 252.4 141.45 Q 251.4 141.45 251.4 140.25 L 251.4 137.95 Q 251.4 136 249.25 136 248.3 136 247.6 136.55 246.8 137.1 246.8 137.95 246.8 138.05 246.95 138.65 L 248.5 138.05 M 249.9 139.45 L 249.9 140.35 Q 249.9 140.8 249.6 141.1 249.3 141.35 248.9 141.35 248.15 141.35 248.15 140.65 248.15 139.8 249.9 139.45 Z"></path>
    </g>
  </defs>
  <g transform="matrix( 2.2008514404296875, 0, 0, 2.2008514404296875, -461.95,-291.5) ">
    <use xlink:href="#Layer1_0_FILL"></use>
  </g>
  <g transform="matrix( 2.2008514404296875, 0, 0, 2.2008514404296875, -461.95,-291.5) ">
    <use xlink:href="#Layer1_1_FILL"></use>
  </g>
  <g transform="matrix( 2.2008514404296875, 0, 0, 2.2008514404296875, -461.95,-291.5) ">
    <use xlink:href="#Layer1_2_FILL"></use>
  </g>
  <g transform="matrix( 2.2008514404296875, 0, 0, 2.2008514404296875, -461.95,-291.5) ">
    <use xlink:href="#Layer1_3_FILL"></use>
  </g>
  <g transform="matrix( 2.2008514404296875, 0, 0, 2.2008514404296875, -461.95,-291.5) ">
    <use xlink:href="#Layer1_4_FILL"></use>
  </g>
  <g transform="matrix( 2.2008514404296875, 0, 0, 2.2008514404296875, -461.95,-291.5) ">
    <use xlink:href="#Layer1_5_FILL"></use>
  </g>
  <g transform="matrix( 2.2008514404296875, 0, 0, 2.2008514404296875, -461.95,-291.5) ">
    <use xlink:href="#Layer1_6_FILL"></use>
  </g>
</svg>
