<?xml version="1.0" encoding="UTF-8"?>
<svg xmlns="http://www.w3.org/2000/svg" xmlns:xlink="http://www.w3.org/1999/xlink" version="1.1" preserveAspectRatio="none" x="0px" y="0px" width="345px" height="145px" viewBox="0 0 345 145">
  <defs>
    <g id="Layer0_0_FILL">
      <path fill="#FFBF1F" stroke="none" d=" M 92.4 87.3 Q 89.05 84.4 84.75 81.9 82.7 82.7 80.35 84.75 77.9 86.9 75.9 89.65 72.55 94.3 69.7 101.05 67.679296875 105.883984375 67.45 107.7 67.266015625 105.07421875 64.8 99.45 61.6 92.25 57.6 87.75 53.6 83.25 48.2 80.85 41.95 78.1 36.85 79.85 35 100.8 45.75 120.25 56.55 139.75 75.35 149.3 74.9 134.85 82.15 119.35 89.1 104.55 99.8 95.35 96.25 90.65 92.4 87.3 Z"></path>
    </g>
    <g id="Layer0_1_FILL">
      <path fill="#FFBF1F" stroke="none" d=" M 85 74.75 L 85 73.55 Q 80.15 72.45 75.45 68.2 71.3 64.5 69.4 60.45 68.8 59.05 68.6 58.2 68.4 57.15 68.65 56.1 68.9 55.2 70 53.7 71 52.35 71.3 51.8 71.95 50.65 72.1 49.4 72.25 48.55 72.05 47.45 71.75 45.4 70.45 44 69.15 42.65 67.45 42.65 65.75 42.65 64.45 44 63.15 45.35 62.8 47.45 62.6 48.95 62.9 50.1 63.2 51.5 64.9 53.7 66.35 55.65 66.35 57.25 66.35 58.95 64.7 61.55 63.1 64.15 60.5 66.7 54.2 72.8 48.1 73.95 L 48.1 74.05 Q 58.1 77.95 63.85 87.05 66.65 91.6 67.45 95.4 68.6 90.4 72.35 85.25 77.35 78.4 85 74.75 Z"></path>
    </g>
    <g id="Layer0_2_FILL">
      <path fill="#10AEC4" stroke="none" d=" M 181.2 79.85 Q 176.1 78.1 169.85 80.85 164.45 83.25 160.45 87.75 156.45 92.25 153.3 99.45 150.804296875 105.141796875 150.6 107.75 150.40625 105.9689453125 148.35 101.05 145.55 94.3 142.15 89.65 140.15 86.9 137.7 84.75 135.35 82.7 133.3 81.9 129 84.4 125.65 87.3 121.8 90.65 118.25 95.35 128.95 104.55 135.9 119.35 143.15 134.85 142.7 149.3 161.5 139.75 172.3 120.25 183.1 100.8 181.2 79.85 Z"></path>
    </g>
    <g id="Layer0_3_FILL">
      <path fill="#1B5CFF" stroke="none" d=" M 104.6 45.85 Q 106.5 48.55 106.8 49.1 107.75 51.05 107.3 53.05 105.55 59.2 98.5 65.55 91.7 71.75 85.05 73.6 L 85 73.6 85 74.75 Q 97.4 80.15 104.45 91.4 107.95 97 109 101.55 L 109.05 101.35 109.05 101.55 Q 110.1 97 113.65 91.4 120.7 80.15 133.05 74.75 L 133.05 73.6 Q 126.4 71.75 119.55 65.55 112.5 59.2 110.75 53.05 110.3 51.05 111.25 49.1 111.55 48.6 113.45 45.85 116.5 41.55 114.65 36.7 113.75 34.65 112.2 33.55 110.75 32.5 109.05 32.6 107.35 32.5 105.85 33.55 104.3 34.65 103.4 36.7 101.55 41.55 104.6 45.85 Z"></path>
    </g>
    <g id="Layer0_4_FILL">
      <path fill="#1B5CFF" stroke="none" d=" M 109.15 127.45 L 113.35 130.4 Q 126.25 140.15 133.85 154.15 L 137.15 152.85 Q 136.9 144.45 133.95 134.05 128.05 113.4 114.6 101.2 112.3 105.05 110.45 110.05 109.55 112.55 109.05 114.25 108.55 112.55 107.6 110.05 105.7 105 103.45 101.2 89.95 113.45 84.1 134.05 81.2 144.45 80.95 152.85 L 84.2 154.15 Q 91.8 140.15 104.7 130.4 L 109.05 127.35 109.15 127.45 Z"></path>
    </g>
    <g id="Layer0_5_FILL">
      <path fill="#1B5CFF" stroke="none" d=" M 116.7 142.1 L 109.05 134.75 Q 105.5 137.9 101.4 142.1 93.15 150.55 90.15 155.9 109.05 161.1 127.9 155.9 124.9 150.55 116.7 142.1 Z"></path>
    </g>
    <g id="Layer0_6_FILL">
      <path fill="#10AEC4" stroke="none" d=" M 169.95 74.05 L 169.95 73.95 Q 163.85 72.8 157.55 66.7 154.95 64.15 153.35 61.55 151.7 58.95 151.7 57.25 151.7 55.7 153.2 53.7 154.85 51.5 155.15 50.1 155.45 48.95 155.25 47.45 154.9 45.35 153.6 44 152.3 42.65 150.6 42.65 148.95 42.65 147.65 44 146.35 45.35 146 47.45 145.8 48.55 145.95 49.4 146.1 50.65 146.75 51.8 147.05 52.35 148.05 53.7 149.15 55.2 149.4 56.1 149.65 57.15 149.45 58.2 149.25 59.05 148.65 60.45 146.75 64.5 142.6 68.2 137.9 72.45 133.05 73.55 L 133.05 74.75 Q 140.7 78.4 145.7 85.25 149.45 90.4 150.6 95.4 150.8 94.45 151.35 92.95 152.45 89.9 154.25 87.05 159.9 78 169.95 74.05 Z"></path>
    </g>
    <g id="Layer0_7_FILL">
      <path fill="#1B5CFF" stroke="none" d=" M 244.55 89.3 L 244.55 68.1 Q 244.55 66.45 244.2 65.9 243.75 65.25 242.15 64.85 L 238.2 63.9 Q 237.6 63.7 236.65 63.7 235.8 63.7 235.1 64 232.75 64.9 231.15 66.55 229.95 67.75 229.95 69.9 L 229.95 88.15 Q 229.95 88.8 230.25 89.05 230.55 89.3 231.3 89.3 L 234.15 89.3 234.15 78.95 238.3 78.95 Q 239.5 78.95 239.9 79.25 240.35 79.5 240.35 80.4 L 240.35 88.15 Q 240.35 88.85 240.65 89.05 240.9 89.3 241.7 89.3 L 244.55 89.3 M 234.15 70.4 Q 234.15 69.2 234.9 68.6 236 67.7 237.45 68.1 L 239.25 68.5 Q 239.95 68.7 240.15 69 240.35 69.3 240.35 70.05 L 240.35 75.2 235.45 75.2 Q 234.65 75.2 234.4 75 234.15 74.8 234.15 74.15 L 234.15 70.4 Z"></path>
    </g>
    <g id="Layer0_8_FILL">
      <path fill="#1B5CFF" stroke="none" d=" M 266.35 64.05 Q 266.1 63.8 265.4 63.8 L 249.15 63.8 249.15 66.9 Q 249.15 67.5 249.4 67.75 249.65 67.95 250.3 67.95 L 255.7 67.95 255.7 88.15 Q 255.7 88.85 255.9 89.05 256.15 89.3 256.8 89.3 L 260 89.3 260 67.95 266.55 67.95 266.55 64.85 Q 266.55 64.25 266.35 64.05 Z"></path>
    </g>
    <g id="Layer0_9_FILL">
      <path fill="#1B5CFF" stroke="none" d=" M 271.3 66.5 Q 270.1 67.65 270.1 69.85 L 270.1 84.85 Q 270.1 86.45 270.6 87.1 271.1 87.8 272.75 88.2 L 276.55 89.1 Q 277.3 89.3 278.15 89.3 279 89.3 279.8 89 282.1 88.15 283.8 86.5 284.45 85.9 284.7 85.2 285 84.45 285 83.15 L 285 68.15 Q 285 66.55 284.55 65.9 284 65.2 282.35 64.8 L 278.55 63.9 Q 277.9 63.7 276.95 63.7 276.05 63.7 275.35 64 273 64.9 271.3 66.5 M 280.55 68.6 Q 280.8 68.9 280.8 69.65 L 280.8 83.1 Q 280.8 84.3 279.75 84.95 278.6 85.65 277.4 85.3 L 275.6 84.95 Q 274.85 84.75 274.6 84.4 274.35 84.1 274.35 83.35 L 274.35 69.9 Q 274.35 68.7 275.4 68.05 276.45 67.3 277.7 67.7 L 279.55 68.05 Q 280.3 68.25 280.55 68.6 Z"></path>
    </g>
    <g id="Layer0_10_FILL">
      <path fill="#1B5CFF" stroke="none" d=" M 279.6 98.05 Q 278.75 98.05 278 98.4 275.6 99.3 273.9 100.9 272.7 102.1 272.7 104.25 L 272.7 119.4 Q 272.7 121 273.2 121.65 273.75 122.35 275.4 122.75 L 279.2 123.7 Q 280.2 123.9 280.8 123.9 281.55 123.9 282.4 123.55 284.85 122.65 286.45 121.05 287.65 119.95 287.65 117.7 L 287.65 102.55 Q 287.65 100.95 287.15 100.3 286.65 99.6 284.95 99.2 L 281.15 98.25 Q 280.25 98.05 279.6 98.05 M 283.2 103 Q 283.4 103.3 283.4 104.1 L 283.4 117.6 Q 283.4 118.8 282.35 119.5 281.2 120.2 280 119.85 L 278.25 119.45 Q 277.5 119.3 277.25 118.95 277 118.65 277 117.85 L 277 104.35 Q 277 103.15 278.05 102.45 279.15 101.75 280.35 102.1 L 282.15 102.5 Q 282.95 102.65 283.2 103 Z"></path>
    </g>
    <g id="Layer0_11_FILL">
      <path fill="#1B5CFF" stroke="none" d=" M 282.35 54.95 Q 282.2 54.65 281.75 54.65 L 279.9 54.65 Q 278.85 54.65 278.4 55.65 L 276.7 58.85 Q 276.55 59.25 276.75 59.55 276.95 59.9 277.55 59.9 L 279.15 59.9 Q 280.05 59.9 280.5 59.25 L 282.3 55.7 Q 282.55 55.2 282.35 54.95 Z"></path>
    </g>
    <g id="Layer0_12_FILL">
      <path fill="#1B5CFF" stroke="none" d=" M 291.5 64.55 Q 290.75 64.8 290.75 65.7 L 290.75 87.05 Q 290.75 88.25 291.35 88.75 292 89.3 293.45 89.3 L 304.65 89.3 305 86 Q 305.25 85.15 304.2 85.15 L 296.45 85.15 Q 295.65 85.15 295.35 84.95 295.05 84.7 295.05 84.1 L 295.05 64.1 Q 295.05 63.7 294.65 63.7 294.3 63.7 294 63.8 L 291.5 64.55 Z"></path>
    </g>
    <g id="Layer0_13_FILL">
      <path fill="#1B5CFF" stroke="none" d=" M 310.15 64.55 Q 309.35 64.8 309.35 65.7 L 309.35 88.15 Q 309.35 88.85 309.65 89.05 309.95 89.3 310.8 89.3 L 313.7 89.3 313.7 64.1 Q 313.7 63.7 313.3 63.7 312.95 63.7 312.65 63.8 L 310.15 64.55 Z"></path>
    </g>
    <g id="Layer0_14_FILL">
      <path fill="#1B5CFF" stroke="none" d=" M 219.05 98.05 Q 217.95 98.05 216.95 98.5 214.7 99.45 213.3 101.2 211.9 102.95 211.9 104.8 211.9 106.5 213 108.05 213.7 109.1 215.55 110.75 L 217.7 112.7 Q 219.3 114.2 219.85 114.95 220.5 115.85 220.5 116.85 220.5 118.3 219.35 119.1 218.35 119.8 217.05 119.4 L 214.35 118.75 Q 213.2 118.45 212.75 119.15 L 211.15 121.25 Q 210.9 121.65 211 122.1 211.1 122.45 211.65 122.6 L 216 123.65 Q 217.1 123.95 217.8 123.95 219.35 123.95 220.9 122.9 225.1 120.35 225.1 116.4 225.1 114.55 223.95 112.85 223.15 111.7 221.35 110.05 L 218.95 107.9 Q 217.7 106.75 217.35 106.25 216.75 105.45 216.75 104.55 216.75 103.55 217.65 102.9 218.6 102.25 219.95 102.65 L 221.8 103.1 Q 223.1 103.4 223.55 102.7 L 225.15 100.55 Q 225.4 100.15 225.25 99.75 225 99.4 224.6 99.3 L 220.45 98.25 Q 219.65 98.05 219.05 98.05 Z"></path>
    </g>
    <g id="Layer0_15_FILL">
      <path fill="#1B5CFF" stroke="none" d=" M 266.25 98.5 Q 266.25 98.05 265.85 98.05 265.5 98.05 265.2 98.15 L 262.7 98.9 Q 261.95 99.1 261.95 100.05 L 261.95 108.75 256.75 108.75 Q 255.9 108.75 255.6 108.5 255.3 108.3 255.3 107.65 L 255.3 98.5 Q 255.3 98.05 254.95 98.05 254.6 98.05 254.3 98.15 L 251.8 98.9 Q 251 99.15 251 100.05 L 251 122.6 Q 251 123.3 251.3 123.55 251.6 123.8 252.45 123.8 L 255.3 123.8 255.3 112.5 260.5 112.5 Q 261.35 112.5 261.65 112.75 261.95 112.95 261.95 113.6 L 261.95 122.6 Q 261.95 123.3 262.2 123.55 262.5 123.8 263.25 123.8 L 266.25 123.8 266.25 98.5 Z"></path>
    </g>
    <g id="Layer0_16_FILL">
      <path fill="#1B5CFF" stroke="none" d=" M 351.4 68.1 Q 351.4 66.45 351.05 65.9 350.6 65.25 349 64.85 L 345.05 63.9 Q 344.45 63.7 343.5 63.7 342.6 63.7 341.95 64 339.6 64.9 337.95 66.55 336.8 67.7 336.8 69.9 L 336.8 88.15 Q 336.8 88.85 337.1 89.05 337.35 89.3 338.15 89.3 L 340.95 89.3 340.95 78.95 345.1 78.95 Q 346.35 78.95 346.75 79.25 347.2 79.5 347.2 80.4 L 347.2 88.15 Q 347.2 88.8 347.5 89.05 347.75 89.3 348.5 89.3 L 351.4 89.3 351.4 68.1 M 347 69 Q 347.2 69.3 347.2 70.05 L 347.2 75.2 342.3 75.2 Q 341.5 75.2 341.25 75 340.95 74.8 340.95 74.15 L 340.95 70.4 Q 340.95 69.25 341.75 68.6 342.75 67.7 344.3 68.1 L 346.05 68.5 Q 346.75 68.7 347 69 Z"></path>
    </g>
    <g id="Layer0_17_FILL">
      <path fill="#1B5CFF" stroke="none" d=" M 300.75 98.05 Q 299.95 98.05 299.2 98.4 296.8 99.3 295.1 100.9 293.9 102.1 293.9 104.25 L 293.9 119.4 Q 293.9 121 294.4 121.65 294.95 122.35 296.6 122.75 L 300.4 123.7 Q 301.4 123.9 301.95 123.9 302.75 123.9 303.6 123.55 306.05 122.65 307.65 121.05 308.85 119.95 308.85 117.7 L 308.85 102.55 Q 308.85 100.95 308.35 100.3 307.85 99.6 306.15 99.2 L 302.35 98.25 Q 301.45 98.05 300.75 98.05 M 304.6 104.1 L 304.6 117.6 Q 304.6 118.8 303.55 119.5 302.4 120.2 301.2 119.85 L 299.45 119.45 Q 298.65 119.3 298.4 118.95 298.2 118.65 298.2 117.85 L 298.2 104.35 Q 298.2 103.15 299.25 102.45 300.35 101.75 301.55 102.1 L 303.35 102.5 Q 304.1 102.65 304.35 103 304.6 103.3 304.6 104.1 Z"></path>
    </g>
    <g id="Layer0_18_FILL">
      <path fill="#1B5CFF" stroke="none" d=" M 329.35 123.7 L 329.7 120.4 Q 329.95 119.55 328.85 119.55 L 321.15 119.55 Q 320.3 119.55 320 119.3 319.7 119.1 319.7 118.45 L 319.7 98.5 Q 319.7 98.05 319.35 98.05 L 318.65 98.2 316.2 98.95 Q 315.4 99.2 315.4 100.1 L 315.4 121.4 Q 315.4 122.6 316.05 123.15 316.65 123.7 318.15 123.7 L 329.35 123.7 Z"></path>
    </g>
    <g id="Layer0_19_FILL">
      <path fill="#1B5CFF" stroke="none" d=" M 240.2 98.25 Q 239.45 98.05 238.5 98.05 237.6 98.05 236.8 98.35 234.2 99.25 232.5 100.9 231.2 102.1 231.2 104.25 L 231.2 119.1 Q 231.2 120.65 231.75 121.35 232.3 122.05 234.05 122.45 L 242.35 124.1 Q 242.9 124.15 243.2 123.6 L 244.1 120.65 Q 244.45 120.1 243.6 119.85 L 237.05 118.5 Q 236.25 118.3 236 118 235.75 117.65 235.75 116.9 L 235.75 104.55 Q 235.75 103.3 236.95 102.55 237.85 102 239.35 102.2 240.6 102.35 242.6 102.85 243.2 103 243.45 102.9 243.65 102.85 243.9 102.55 L 245.65 100 Q 246.1 99.45 245.35 99.3 L 240.2 98.25 Z"></path>
    </g>
    <g id="Layer0_20_FILL">
      <path fill="#1B5CFF" stroke="none" d=" M 225.6 65.7 Q 226.05 65.15 225.3 65 L 220.15 63.95 Q 219.5 63.75 218.45 63.75 217.55 63.75 216.75 64.05 214.15 64.95 212.45 66.6 211.15 67.8 211.15 69.95 L 211.15 84.8 Q 211.15 86.4 211.7 87.05 212.3 87.75 214.05 88.15 L 222.3 89.8 Q 222.9 89.85 223.2 89.3 L 224.05 86.35 Q 224.4 85.8 223.55 85.55 L 217.05 84.2 Q 216.2 84 215.95 83.7 215.7 83.4 215.7 82.6 L 215.7 70.25 Q 215.7 69 216.9 68.25 217.8 67.7 219.35 67.9 220.5 68.05 222.6 68.55 223.15 68.7 223.4 68.6 223.6 68.55 223.85 68.25 L 225.6 65.7 Z"></path>
    </g>
    <g id="Layer0_21_FILL">
      <path fill="#1B5CFF" stroke="none" d=" M 333.25 65.7 Q 333.7 65.15 332.9 65 L 327.75 63.95 Q 327.1 63.75 326.1 63.75 325.1 63.75 324.4 64.05 321.9 64.9 320.05 66.6 318.8 67.75 318.8 69.95 L 318.8 84.8 Q 318.8 86.4 319.35 87.05 319.9 87.75 321.65 88.15 L 329.95 89.8 Q 330.5 89.85 330.8 89.3 L 331.7 86.35 Q 332 85.8 331.2 85.55 L 324.65 84.2 Q 323.85 84 323.6 83.7 323.35 83.35 323.35 82.6 L 323.35 70.25 Q 323.35 69 324.5 68.25 325.4 67.7 326.95 67.9 328.2 68.05 330.2 68.55 330.75 68.7 331.05 68.6 331.25 68.55 331.5 68.25 L 333.25 65.7 Z"></path>
    </g>
    <g id="Layer0_22_FILL">
      <path fill="#FFBF1F" stroke="none" d=" M 213.25 134.9 L 214.75 134.9 Q 215.95 134.9 216.2 136 L 216.2 133.75 210.75 133.75 Q 211.5 133.771875 211.5 135.15 L 211.5 140.65 Q 211.5 142.13828125 210.85 142.15 L 216.35 142.15 216.75 139.8 Q 216.4 140.45 216.05 140.7 215.6 141 214.85 141 L 213.25 141 213.25 138.5 214.6 138.5 Q 215.49296875 138.5 215.5 138.9 L 215.5 136.9 Q 215.492578125 137.3 214.55 137.3 L 213.25 137.3 213.25 134.9 Z"></path>
    </g>
    <g id="Layer0_23_FILL">
      <path fill="#FFBF1F" stroke="none" d=" M 221.3 139.05 L 222.4 137.3 Q 223 136.3 223.6 136.2 L 221.2 136.2 Q 221.4 136.20546875 221.4 136.55 221.4 136.85 221.1 137.25 L 220.65 138 220.15 137.2 Q 219.9 136.85 219.9 136.6 219.9 136.20625 220.15 136.2 L 217.35 136.2 Q 217.4 136.25 217.65 136.45 218 136.75 218.35 137.25 L 219.65 139.35 218.6 141 Q 217.855859375 142.141015625 217.35 142.15 L 219.8 142.15 Q 219.55 142.1453125 219.55 141.85 219.55 141.6 219.9 141.05 L 220.35 140.35 220.75 141.1 Q 221.05 141.5 221.05 141.85 221.05 142.1453125 220.85 142.15 L 223.65 142.15 Q 223.3453125 142.14296875 222.75 141.25 L 221.3 139.05 Z"></path>
    </g>
    <g id="Layer0_24_FILL">
      <path fill="#FFBF1F" stroke="none" d=" M 229.3 141.4 Q 230.1 140.45 230.1 138.95 230.1 137.5 229.4 136.7 228.75 136 227.85 136 226.85 136 226.2 136.9 L 226.2 135.95 223.95 136.9 224.1 136.9 Q 224.75 136.9 224.75 138.15 L 224.75 143.1 Q 224.75 144.439453125 224.25 144.45 L 226.9 144.45 Q 226.3 144.439453125 226.3 143.1 L 226.3 141.95 Q 226.6 142.3 227.3 142.3 228.55 142.3 229.3 141.4 M 228.45 139.3 Q 228.45 140.1 228.15 140.65 227.8 141.2 227.2 141.2 226.25 141.2 226.25 140.3 L 226.25 138.65 Q 226.25 138.05 226.55 137.65 226.85 137.25 227.3 137.25 228.45 137.25 228.45 139.3 Z"></path>
    </g>
    <g id="Layer0_25_FILL">
      <path fill="#FFBF1F" stroke="none" d=" M 231.05 142.15 L 233.75 142.15 Q 233.15 142.139453125 233.15 140.8 L 233.15 133.35 230.8 134.25 230.9 134.25 Q 231.65 134.25 231.65 135.6 L 231.65 140.8 Q 231.65 142.05 231.05 142.15 Z"></path>
    </g>
    <g id="Layer0_26_FILL">
      <path fill="#FFBF1F" stroke="none" d=" M 239.8 141.4 Q 240.65 140.45 240.65 139.05 240.65 137.7 239.85 136.85 239.05 136 237.7 136 236.4 136 235.55 136.95 234.75 137.9 234.75 139.3 234.75 140.65 235.5 141.5 236.3 142.35 237.6 142.35 238.95 142.35 239.8 141.4 M 239.05 139.3 Q 239.05 140.1 238.7 140.65 238.35 141.2 237.8 141.2 237.1 141.2 236.7 140.55 236.3 139.9 236.3 139 236.3 138.2 236.65 137.7 236.95 137.15 237.55 137.15 238.2 137.15 238.65 137.8 239.05 138.45 239.05 139.3 Z"></path>
    </g>
    <g id="Layer0_27_FILL">
      <path fill="#FFBF1F" stroke="none" d=" M 241.4 136.85 L 241.55 136.85 Q 242.2 136.85 242.2 138 L 242.2 140.8 Q 242.2 142.05 241.6 142.15 L 244.3 142.15 Q 243.7 142.139453125 243.7 140.8 L 243.7 139.55 Q 243.7 137.55 244.8 137.55 245.55 137.55 245.8 138.25 L 245.8 136.2 Q 245.55 136 245.2 136 244.15 136 243.65 137.3 L 243.6 135.95 241.4 136.85 Z"></path>
    </g>
    <g id="Layer0_28_FILL">
      <path fill="#FFBF1F" stroke="none" d=" M 248.5 138.05 Q 248.25 137.9 248.25 137.6 248.25 137 249.1 137 249.9 137 249.9 138.05 L 249.9 138.55 Q 246.7 139.3 246.7 140.8 246.7 141.5 247.2 141.95 247.7 142.35 248.45 142.35 249.6 142.35 250.1 141.7 250.3 142.35 251.05 142.45 L 252.5 141.45 252.4 141.45 Q 251.4 141.45 251.4 140.25 L 251.4 137.95 Q 251.4 136 249.25 136 248.3 136 247.6 136.55 246.8 137.1 246.8 137.95 246.8 138.05 246.95 138.65 L 248.5 138.05 M 249.9 139.45 L 249.9 140.35 Q 249.9 140.8 249.6 141.1 249.3 141.35 248.9 141.35 248.15 141.35 248.15 140.65 248.15 139.8 249.9 139.45 Z"></path>
    </g>
    <g id="Layer0_29_FILL">
      <path fill="#1B5CFF" stroke="none" d=" M 261.25 133.3 L 258.85 134.2 258.95 134.2 Q 259.7 134.2 259.7 135.5 L 259.7 136.4 Q 259.35 136.05 258.6 136.05 257.5 136.05 256.7 136.9 255.85 137.85 255.85 139.45 255.85 140.85 256.55 141.65 257.2 142.35 258.15 142.35 259.2 142.35 259.8 141.65 L 259.8 142.45 262.05 141.6 261.9 141.6 Q 261.25 141.6 261.25 140.35 L 261.25 133.3 M 259.7 138.3 L 259.7 139.95 Q 259.7 140.5 259.4 140.85 259.1 141.15 258.65 141.15 257.5 141.15 257.5 139.05 257.5 138.25 257.85 137.75 258.2 137.15 258.75 137.15 259.7 137.15 259.7 138.3 Z"></path>
    </g>
    <g id="Layer0_30_FILL">
      <path fill="#1B5CFF" stroke="none" d=" M 266.05 141.15 Q 264.5 141.15 264.25 139.4 L 267.8 139.4 Q 267.7 136 265.45 136 264.2 136 263.45 137 262.75 137.95 262.75 139.3 262.75 140.6 263.45 141.45 264.2 142.35 265.4 142.35 267.5 142.35 267.85 140.25 267.2 141.15 266.05 141.15 M 264.6 137.5 Q 264.95 137.05 265.4 137.05 266.3 137.05 266.3 138.5 L 264.25 138.5 Q 264.3 137.9 264.6 137.5 Z"></path>
    </g>
    <g id="Layer0_31_FILL">
      <path fill="#1B5CFF" stroke="none" d=" M 271.15 137.1 Q 272.15 137.1 272.7 138.05 L 272.7 136.35 Q 272.1 136 271.2 136 269.05 136 269.05 137.9 269.05 138.9 270.2 139.6 270.7 139.85 271.3 140.15 271.65 140.4 271.65 140.7 271.65 141.25 270.8 141.25 269.6 141.25 268.95 140 L 268.95 141.85 Q 269.6 142.35 270.8 142.35 271.85 142.35 272.45 141.85 273.05 141.35 273.05 140.5 273.05 139.35 271.65 138.65 270.9 138.3 270.75 138.15 270.45 137.95 270.45 137.65 270.45 137.1 271.15 137.1 Z"></path>
    </g>
    <g id="Layer0_32_FILL">
      <path fill="#1B5CFF" stroke="none" d=" M 277.25 141.15 Q 276.45 141.15 276 140.45 275.55 139.8 275.55 138.9 275.55 138.15 275.85 137.65 276.2 137.15 276.7 137.15 277.45 137.15 277.45 138.15 L 277.4 138.6 278.85 138 Q 278.8 137.15 278.25 136.55 277.7 136 276.9 136 275.75 136 274.95 136.95 274.1 137.9 274.1 139.45 274.1 140.75 274.75 141.5 275.45 142.35 276.65 142.35 277.5 142.35 278.1 141.8 278.8 141.2 278.95 140.2 278.2 141.15 277.25 141.15 Z"></path>
    </g>
    <g id="Layer0_33_FILL">
      <path fill="#1B5CFF" stroke="none" d=" M 283.85 142.4 L 286.15 141.45 285.95 141.45 Q 285.3 141.45 285.3 140.3 L 285.3 136.2 283.2 136.2 Q 283.8 136.5 283.8 137.5 L 283.8 139.8 Q 283.8 140.35 283.45 140.75 283.15 141.1 282.65 141.1 281.85 141.1 281.85 139.9 L 281.85 136.2 279.55 136.2 Q 279.9 136.35 279.95 136.45 280.3 136.8 280.3 137.55 L 280.3 140.25 Q 280.3 142.35 282.05 142.35 283.1 142.35 283.8 141.5 L 283.85 142.4 Z"></path>
    </g>
    <g id="Layer0_34_FILL">
      <path fill="#1B5CFF" stroke="none" d=" M 288.75 133.3 L 286.4 134.15 286.5 134.15 Q 287.25 134.15 287.25 135.55 L 287.25 142.35 Q 287.5 142 287.95 142 288.05 142 288.55 142.2 289.05 142.35 289.7 142.35 290.95 142.35 291.75 141.3 292.55 140.3 292.55 138.9 292.55 137.5 291.85 136.7 291.25 136 290.35 136 289.35 136 288.75 136.8 L 288.75 133.3 M 288.75 138.6 Q 288.75 138 289.05 137.65 289.35 137.25 289.8 137.25 290.35 137.25 290.65 137.9 290.9 138.45 290.9 139.25 290.9 141.2 289.65 141.2 288.75 141.2 288.75 140.3 L 288.75 138.6 Z"></path>
    </g>
    <g id="Layer0_35_FILL">
      <path fill="#1B5CFF" stroke="none" d=" M 293.25 136.85 L 293.4 136.85 Q 294.05 136.85 294.05 138 L 294.05 140.8 Q 294.05 142.139453125 293.45 142.15 L 296.2 142.15 Q 295.6 142.139453125 295.6 140.8 L 295.6 139.55 Q 295.6 137.55 296.7 137.55 297.45 137.55 297.7 138.25 L 297.7 136.2 Q 297.45 136 297.05 136 296.6 136 296.15 136.4 295.7 136.8 295.5 137.3 L 295.5 135.95 293.25 136.85 Z"></path>
    </g>
    <g id="Layer0_36_FILL">
      <path fill="#1B5CFF" stroke="none" d=" M 299.95 139.4 L 303.5 139.4 Q 303.5 136 301.15 136 299.95 136 299.2 137 298.5 137.95 298.5 139.3 298.5 140.6 299.2 141.45 299.95 142.35 301.15 142.35 303.25 142.35 303.6 140.25 302.95 141.15 301.8 141.15 300.25 141.15 299.95 139.4 M 299.95 138.5 Q 300.15 137.05 301.1 137.05 302.05 137.05 302.05 138.5 L 299.95 138.5 Z"></path>
    </g>
    <g id="Layer0_37_FILL">
      <path fill="#10B3C9" stroke="none" d=" M 309.15 137.6 Q 309.15 137 310 137 310.8 137 310.8 138.05 L 310.8 138.55 Q 307.65 139.3 307.65 140.8 307.65 141.5 308.15 141.95 308.6 142.35 309.35 142.35 310.5 142.35 311.05 141.7 311.1 141.95 311.35 142.15 311.65 142.4 311.95 142.45 L 313.45 141.45 313.3 141.45 Q 312.35 141.45 312.35 140.25 L 312.35 137.95 Q 312.35 136 310.15 136 309.2 136 308.5 136.55 307.75 137.1 307.75 137.95 307.75 138.35 307.9 138.65 L 309.4 138.05 Q 309.15 137.9 309.15 137.6 M 310.8 139.45 L 310.8 140.35 Q 310.8 140.8 310.5 141.1 310.2 141.35 309.85 141.35 309.05 141.35 309.05 140.65 309.05 139.8 310.8 139.45 Z"></path>
    </g>
    <g id="Layer0_38_FILL">
      <path fill="#10B3C9" stroke="none" d=" M 313.5 136.9 L 313.65 136.9 Q 314.3 136.9 314.3 138.15 L 314.3 143.1 Q 314.3 144.439453125 313.8 144.45 L 316.45 144.45 Q 315.85 144.439453125 315.85 143.1 L 315.85 141.95 Q 316.15 142.3 316.85 142.3 318.1 142.3 318.85 141.4 319.65 140.45 319.65 138.95 319.65 137.5 318.95 136.7 318.3 136 317.4 136 316.4 136 315.75 136.9 L 315.75 135.95 313.5 136.9 M 315.8 138.65 Q 315.8 138.05 316.1 137.65 316.4 137.25 316.85 137.25 318 137.25 318 139.3 318 140.1 317.7 140.65 317.35 141.2 316.75 141.2 315.8 141.2 315.8 140.3 L 315.8 138.65 Z"></path>
    </g>
    <g id="Layer0_39_FILL">
      <path fill="#10B3C9" stroke="none" d=" M 324.8 138.25 L 324.8 136.2 Q 324.55 136 324.2 136 323.2 136 322.6 137.3 L 322.6 135.95 320.35 136.85 320.5 136.85 Q 321.15 136.85 321.15 138 L 321.15 140.8 Q 321.15 142.139453125 320.55 142.15 L 323.3 142.15 Q 322.7 142.139453125 322.7 140.8 L 322.7 139.55 Q 322.7 137.55 323.8 137.55 324.55 137.55 324.8 138.25 Z"></path>
    </g>
    <g id="Layer0_40_FILL">
      <path fill="#10B3C9" stroke="none" d=" M 325.6 139.3 Q 325.6 140.6 326.3 141.45 327.05 142.35 328.25 142.35 330.35 142.35 330.7 140.25 330.05 141.15 328.9 141.15 327.35 141.15 327.05 139.4 L 330.6 139.4 Q 330.6 136 328.25 136 327.05 136 326.3 137 325.6 137.95 325.6 139.3 M 327.05 138.5 Q 327.25 137.05 328.25 137.05 329.15 137.05 329.15 138.5 L 327.05 138.5 Z"></path>
    </g>
    <g id="Layer0_41_FILL">
      <path fill="#10B3C9" stroke="none" d=" M 331.35 136.9 L 331.55 136.9 Q 332.2 136.9 332.2 138.1 L 332.2 140.85 Q 332.2 142.134765625 331.6 142.15 L 334.25 142.15 Q 333.7 142.134765625 333.7 140.85 L 333.7 138.55 Q 333.7 138 334.05 137.6 334.4 137.25 334.85 137.25 335.65 137.25 335.65 138.5 L 335.65 140.85 Q 335.65 142.13984375 335.1 142.15 L 337.8 142.15 Q 337.2 142.139453125 337.2 140.8 L 337.2 138.1 Q 337.2 136 335.45 136 334.4 136 333.7 136.9 L 333.65 135.95 331.35 136.9 Z"></path>
    </g>
    <g id="Layer0_42_FILL">
      <path fill="#10B3C9" stroke="none" d=" M 344.1 133.3 L 341.7 134.2 341.8 134.2 Q 342.55 134.2 342.55 135.5 L 342.55 136.4 Q 342.2 136.05 341.45 136.05 340.4 136.05 339.6 136.9 338.75 137.85 338.75 139.45 338.75 140.85 339.45 141.65 340.05 142.35 341 142.35 342.15 142.35 342.65 141.65 L 342.65 142.45 344.9 141.6 344.75 141.6 Q 344.1 141.6 344.1 140.35 L 344.1 133.3 M 342.55 138.3 L 342.55 139.95 Q 342.55 140.5 342.25 140.85 341.95 141.15 341.5 141.15 341 141.15 340.65 140.55 340.35 139.95 340.35 139.05 340.35 138.25 340.7 137.75 341.05 137.15 341.6 137.15 342.55 137.15 342.55 138.3 Z"></path>
    </g>
    <g id="Layer0_43_FILL">
      <path fill="#10B3C9" stroke="none" d=" M 350.65 139.4 Q 350.65 137.8 350 136.9 349.4 136 348.3 136 347.1 136 346.35 137 345.6 137.95 345.6 139.3 345.6 140.6 346.3 141.45 347.05 142.35 348.25 142.35 350.3 142.35 350.75 140.25 350.1 141.15 348.9 141.15 348.25 141.15 347.75 140.7 347.2 140.25 347.1 139.4 L 350.65 139.4 M 348.25 137.05 Q 349.2 137.05 349.2 138.5 L 347.1 138.5 Q 347.15 137.9 347.45 137.5 347.8 137.05 348.25 137.05 Z"></path>
    </g>
  </defs>
  <g transform="matrix( 1, 0, 0, 1, -26.6,-22.6) ">
    <use xlink:href="#Layer0_0_FILL"></use>
  </g>
  <g transform="matrix( 1, 0, 0, 1, -26.6,-22.6) ">
    <use xlink:href="#Layer0_1_FILL"></use>
  </g>
  <g transform="matrix( 1, 0, 0, 1, -26.6,-22.6) ">
    <use xlink:href="#Layer0_2_FILL"></use>
  </g>
  <g transform="matrix( 1, 0, 0, 1, -26.6,-22.6) ">
    <use xlink:href="#Layer0_3_FILL"></use>
  </g>
  <g transform="matrix( 1, 0, 0, 1, -26.6,-22.6) ">
    <use xlink:href="#Layer0_4_FILL"></use>
  </g>
  <g transform="matrix( 1, 0, 0, 1, -26.6,-22.6) ">
    <use xlink:href="#Layer0_5_FILL"></use>
  </g>
  <g transform="matrix( 1, 0, 0, 1, -26.6,-22.6) ">
    <use xlink:href="#Layer0_6_FILL"></use>
  </g>
  <g transform="matrix( 1, 0, 0, 1, -26.6,-22.6) ">
    <use xlink:href="#Layer0_7_FILL"></use>
  </g>
  <g transform="matrix( 1, 0, 0, 1, -26.6,-22.6) ">
    <use xlink:href="#Layer0_8_FILL"></use>
  </g>
  <g transform="matrix( 1, 0, 0, 1, -26.6,-22.6) ">
    <use xlink:href="#Layer0_9_FILL"></use>
  </g>
  <g transform="matrix( 1, 0, 0, 1, -26.6,-22.6) ">
    <use xlink:href="#Layer0_10_FILL"></use>
  </g>
  <g transform="matrix( 1, 0, 0, 1, -26.6,-22.6) ">
    <use xlink:href="#Layer0_11_FILL"></use>
  </g>
  <g transform="matrix( 1, 0, 0, 1, -26.6,-22.6) ">
    <use xlink:href="#Layer0_12_FILL"></use>
  </g>
  <g transform="matrix( 1, 0, 0, 1, -26.6,-22.6) ">
    <use xlink:href="#Layer0_13_FILL"></use>
  </g>
  <g transform="matrix( 1, 0, 0, 1, -26.6,-22.6) ">
    <use xlink:href="#Layer0_14_FILL"></use>
  </g>
  <g transform="matrix( 1, 0, 0, 1, -26.6,-22.6) ">
    <use xlink:href="#Layer0_15_FILL"></use>
  </g>
  <g transform="matrix( 1, 0, 0, 1, -26.6,-22.6) ">
    <use xlink:href="#Layer0_16_FILL"></use>
  </g>
  <g transform="matrix( 1, 0, 0, 1, -26.6,-22.6) ">
    <use xlink:href="#Layer0_17_FILL"></use>
  </g>
  <g transform="matrix( 1, 0, 0, 1, -26.6,-22.6) ">
    <use xlink:href="#Layer0_18_FILL"></use>
  </g>
  <g transform="matrix( 1, 0, 0, 1, -26.6,-22.6) ">
    <use xlink:href="#Layer0_19_FILL"></use>
  </g>
  <g transform="matrix( 1, 0, 0, 1, -26.6,-22.6) ">
    <use xlink:href="#Layer0_20_FILL"></use>
  </g>
  <g transform="matrix( 1, 0, 0, 1, -26.6,-22.6) ">
    <use xlink:href="#Layer0_21_FILL"></use>
  </g>
  <g transform="matrix( 1, 0, 0, 1, -26.6,-22.6) ">
    <use xlink:href="#Layer0_22_FILL"></use>
  </g>
  <g transform="matrix( 1, 0, 0, 1, -26.6,-22.6) ">
    <use xlink:href="#Layer0_23_FILL"></use>
  </g>
  <g transform="matrix( 1, 0, 0, 1, -26.6,-22.6) ">
    <use xlink:href="#Layer0_24_FILL"></use>
  </g>
  <g transform="matrix( 1, 0, 0, 1, -26.6,-22.6) ">
    <use xlink:href="#Layer0_25_FILL"></use>
  </g>
  <g transform="matrix( 1, 0, 0, 1, -26.6,-22.6) ">
    <use xlink:href="#Layer0_26_FILL"></use>
  </g>
  <g transform="matrix( 1, 0, 0, 1, -26.6,-22.6) ">
    <use xlink:href="#Layer0_27_FILL"></use>
  </g>
  <g transform="matrix( 1, 0, 0, 1, -26.6,-22.6) ">
    <use xlink:href="#Layer0_28_FILL"></use>
  </g>
  <g transform="matrix( 1, 0, 0, 1, -26.6,-22.6) ">
    <use xlink:href="#Layer0_29_FILL"></use>
  </g>
  <g transform="matrix( 1, 0, 0, 1, -26.6,-22.6) ">
    <use xlink:href="#Layer0_30_FILL"></use>
  </g>
  <g transform="matrix( 1, 0, 0, 1, -26.6,-22.6) ">
    <use xlink:href="#Layer0_31_FILL"></use>
  </g>
  <g transform="matrix( 1, 0, 0, 1, -26.6,-22.6) ">
    <use xlink:href="#Layer0_32_FILL"></use>
  </g>
  <g transform="matrix( 1, 0, 0, 1, -26.6,-22.6) ">
    <use xlink:href="#Layer0_33_FILL"></use>
  </g>
  <g transform="matrix( 1, 0, 0, 1, -26.6,-22.6) ">
    <use xlink:href="#Layer0_34_FILL"></use>
  </g>
  <g transform="matrix( 1, 0, 0, 1, -26.6,-22.6) ">
    <use xlink:href="#Layer0_35_FILL"></use>
  </g>
  <g transform="matrix( 1, 0, 0, 1, -26.6,-22.6) ">
    <use xlink:href="#Layer0_36_FILL"></use>
  </g>
  <g transform="matrix( 1, 0, 0, 1, -26.6,-22.6) ">
    <use xlink:href="#Layer0_37_FILL"></use>
  </g>
  <g transform="matrix( 1, 0, 0, 1, -26.6,-22.6) ">
    <use xlink:href="#Layer0_38_FILL"></use>
  </g>
  <g transform="matrix( 1, 0, 0, 1, -26.6,-22.6) ">
    <use xlink:href="#Layer0_39_FILL"></use>
  </g>
  <g transform="matrix( 1, 0, 0, 1, -26.6,-22.6) ">
    <use xlink:href="#Layer0_40_FILL"></use>
  </g>
  <g transform="matrix( 1, 0, 0, 1, -26.6,-22.6) ">
    <use xlink:href="#Layer0_41_FILL"></use>
  </g>
  <g transform="matrix( 1, 0, 0, 1, -26.6,-22.6) ">
    <use xlink:href="#Layer0_42_FILL"></use>
  </g>
  <g transform="matrix( 1, 0, 0, 1, -26.6,-22.6) ">
    <use xlink:href="#Layer0_43_FILL"></use>
  </g>
</svg>
